<svg width="44" height="44" xmlns="http://www.w3.org/2000/svg"><path d="M40.74 0H3.247C1.456 0 0 1.42 0 3.17v37.655C0 42.577 1.456 44 3.246 44H40.74c1.794 0 3.26-1.423 3.26-3.175V3.17C44 1.42 42.534 0 40.74 0zM9.78 6.058a3.786 3.786 0 0 1 3.785 3.782 3.787 3.787 0 0 1-7.574 0A3.784 3.784 0 0 1 9.78 6.058zM6.51 16.496h6.536v20.997H6.51V16.496zm10.633 0h6.26v2.869h.09c.87-1.652 3.002-3.392 6.179-3.392 6.608 0 7.83 4.348 7.83 10.002v11.518h-6.525v-10.21c0-2.436-.047-5.568-3.394-5.568-3.399 0-3.917 2.652-3.917 5.39v10.388h-6.523V16.496z" fill="#FAFAFA" fill-rule="evenodd"/></svg>