<svg width="44" height="44" xmlns="http://www.w3.org/2000/svg"><path d="M38.924 44H5.076A5.077 5.077 0 0 1 0 38.921V5.076A5.076 5.076 0 0 1 5.076 0h33.848A5.076 5.076 0 0 1 44 5.076V38.92A5.077 5.077 0 0 1 38.924 44zM22 13.538a8.462 8.462 0 1 0 .002 16.923A8.462 8.462 0 0 0 22 13.538zm16.924-6.77c0-.934-.758-1.692-1.694-1.692h-5.076c-.935 0-1.692.758-1.692 1.692v5.078c0 .934.757 1.692 1.692 1.692h5.076c.936 0 1.694-.758 1.694-1.692 0 0 0 .934 0 0V6.768zm0 11.845h-3.83c.279 1.084.444 2.216.444 3.386 0 7.478-6.061 13.539-13.538 13.539S8.462 29.478 8.462 21.999c0-1.17.166-2.302.445-3.386H5.076V37.23c0 .934.758 1.691 1.694 1.691h30.46c.936 0 1.694-.757 1.694-1.69 0 0 0 .933 0 0V18.612z" fill="#FAFAFA" fill-rule="evenodd"/></svg>