<svg width="55" height="44" xmlns="http://www.w3.org/2000/svg"><path d="M55 5.208a22.827 22.827 0 0 1-6.48 1.75c2.329-1.375 4.118-3.552 4.96-6.146a22.807 22.807 0 0 1-7.165 2.696A11.352 11.352 0 0 0 38.079 0c-6.232 0-11.284 4.973-11.284 11.107 0 .871.1 1.719.292 2.532A32.205 32.205 0 0 1 3.829 2.033a10.924 10.924 0 0 0-1.528 5.584c0 3.854 1.992 7.254 5.02 9.246a11.375 11.375 0 0 1-5.11-1.39c-.002.047-.002.093-.002.14 0 5.382 3.89 9.872 9.052 10.892a11.464 11.464 0 0 1-5.096.19c1.436 4.413 5.603 7.625 10.54 7.714a22.868 22.868 0 0 1-14.013 4.756c-.911 0-1.81-.053-2.692-.156A32.308 32.308 0 0 0 17.297 44c20.755 0 32.105-16.926 32.105-31.604 0-.482-.01-.961-.033-1.437A22.733 22.733 0 0 0 55 5.209" fill="#FAFAFA" fill-rule="evenodd"/></svg>